:SAMPLES-PER-SECOND 30
:FRAME-RANGE 1-668
:FULLY-SPECIFIED
:DEGREES
481
root  2.04558 39.9541 -14.323 179.91 -74.545 -171.048
RightUpLeg  -4.56499 -10.0812 -1.0983
RightLeg  10.4764 -18.8725 0.723297
RightFoot  -9.53659 -0.207393 9.02609
RightToes  -1.33073e-015 0 -3.6325e-017
Spine  10.2398 0.0765076 -5.81959
Spine1  -2.10748 -0.347439 -0.544072
HEad  -19.09 54.9872 -21.4349
LeftShoulder1  1.13249 -0.379061 -22.8575
LeftArm  -43.2759 -14.5644 3.68525
LeftForeArm  -15.8466 -17.1329 -7.04748
LeftHand  0.618474 0.446646 -14.6533
RightShoulder  5.16275 6.44036 45.4368
RightArm  3.42196 -2.06834 5.838
RightForeArm  12.8117 17.4803 7.44341
RightHand  -0.711013 4.41046 -8.68726
LeftUpLeg  -19.4741 8.9573 6.91476
LeftLeg  7.31455 -2.07842 -2.10777
LeftFoot  5.1212 0.785591 -5.64385
LeftToes  -2.73175e-012 1.00346e-010 -4.28452e-011
482
root  2.41891 39.9449 -14.3339 -179.833 -72.6466 -170.908
RightUpLeg  -4.52111 -7.21335 -0.800774
RightLeg  7.90676 -19.8055 2.0086
RightFoot  -9.19996 -0.209067 7.82399
RightToes  -1.33073e-015 0 -3.6325e-017
Spine  10.4802 0.362044 -4.35219
Spine1  -2.65931 0.195618 -1.58523
HEad  -20.2764 54.8687 -22.5806
LeftShoulder1  1.08594 -0.0837518 -24.0157
LeftArm  -45.1702 -11.5793 2.90183
LeftForeArm  -17.4557 -24.7376 -6.13209
LeftHand  0.65226 0.466085 -15.5047
RightShoulder  5.40877 6.97387 45.1648
RightArm  3.08118 -1.55887 5.69731
RightForeArm  11.8536 17.9668 7.1222
RightHand  -0.705284 4.33834 -8.67933
LeftUpLeg  -19.9027 9.56156 7.53789
LeftLeg  7.02652 -0.795068 -1.97979
LeftFoot  5.70947 0.861095 -5.97338
LeftToes  -2.73175e-012 1.00346e-010 -4.28452e-011
483
root  2.82377 39.904 -14.3157 -179.832 -70.6719 -170.639
RightUpLeg  -5.03323 -6.05225 -0.203892
RightLeg  6.65679 -19.1652 2.42513
RightFoot  -9.09965 -0.195195 6.80461
RightToes  -1.33073e-015 0 -3.6325e-017
Spine  10.9482 0.563677 -2.65647
Spine1  -3.25564 0.650263 -2.64965
HEad  -20.7092 54.3319 -22.6424
LeftShoulder1  1.02411 0.199863 -24.7735
LeftArm  -51.2266 -7.88514 2.00173
LeftForeArm  -15.4579 -31.4214 -7.69656
LeftHand  0.566381 1.03427 -15.3591
RightShoulder  5.72762 7.68512 44.767
RightArm  3.70702 -1.14977 5.88702
RightForeArm  9.61728 19.1451 6.40329
RightHand  -0.699505 4.19677 -8.72924
LeftUpLeg  -20.5623 10.5655 8.09456
LeftLeg  7.43627 0.0910785 -1.80083
LeftFoot  6.02038 0.921819 -6.27433
LeftToes  -2.73175e-012 1.00346e-010 -4.28452e-011
484
root  3.2234 39.8317 -14.2556 -179.546 -68.7266 -170.573
RightUpLeg  -6.41527 -5.68742 0.333663
RightLeg  7.05168 -17.8691 2.28035
RightFoot  -9.11862 -0.177297 5.93754
RightToes  -1.33073e-015 0 -3.6325e-017
Spine  11.3832 0.674137 -0.911114
Spine1  -3.91224 0.93202 -3.40238
HEad  -20.9366 53.3578 -22.4697
LeftShoulder1  0.928125 0.572519 -25.4636
LeftArm  -54.8554 -3.45265 1.3315
LeftForeArm  -16.2297 -38.0416 -9.67545
LeftHand  0.413063 2.36091 -16.6235
RightShoulder  5.90537 8.16012 44.2513
RightArm  5.39603 -0.764153 6.3885
RightForeArm  7.10641 21.3345 5.20659
RightHand  -0.663326 3.98409 -8.46834
LeftUpLeg  -21.6698 12.2343 8.29801
LeftLeg  8.49225 0.158043 -1.58857
LeftFoot  6.04168 0.990244 -6.71396
LeftToes  -2.73175e-012 1.00346e-010 -4.28452e-011
485
root  3.57505 39.7517 -14.1999 -179.603 -67.2505 -170.426
RightUpLeg  -7.69151 -5.54645 0.726396
RightLeg  8.16622 -16.6007 2.07783
RightFoot  -9.30486 -0.162366 5.57173
RightToes  -1.33073e-015 0 -3.6325e-017
Spine  11.906 0.669441 1.1324
Spine1  -4.24306 1.13978 -4.17156
HEad  -20.4863 51.5203 -21.9
LeftShoulder1  0.83916 0.949024 -26.6867
LeftArm  -56.6097 -0.0344518 1.86446
LeftForeArm  -17.0705 -42.5011 -11.2742
LeftHand  0.408917 2.65055 -18.319
RightShoulder  5.89793 8.19524 44.0532
RightArm  5.2119 -0.727245 6.60363
RightForeArm  7.74088 24.5897 4.86059
RightHand  -0.672245 3.8199 -8.72079
LeftUpLeg  -22.7815 14.1539 8.28371
LeftLeg  9.98692 -0.976409 -1.32124
LeftFoot  5.8215 1.10158 -7.52799
LeftToes  -2.73175e-012 1.00346e-010 -4.28452e-011
486
root  3.88192 39.6777 -14.1403 -179.15 -65.959 -171.074
RightUpLeg  -8.97056 -5.8209 0.645588
RightLeg  9.98467 -15.0526 1.90805
RightFoot  -9.81675 -0.139522 5.46767
RightToes  -1.33073e-015 0 -3.6325e-017
Spine  12.0864 0.813284 2.8222
Spine1  -3.86233 1.50438 -4.79211
HEad  -19.0247 48.0234 -20.6191
LeftShoulder1  0.77916 1.19205 -27.5674
LeftArm  -58.0429 2.50605 2.05478
LeftForeArm  -18.6668 -45.2514 -12.4564
LeftHand  0.417958 2.94146 -21.0617
RightShoulder  5.78831 7.95118 44.1623
RightArm  3.02003 -0.869706 6.49838
RightForeArm  12.0117 27.9175 5.38128
RightHand  -0.723896 3.83837 -9.35066
LeftUpLeg  -23.4417 14.6064 8.38297
LeftLeg  11.5417 -3.22297 -1.18986
LeftFoot  5.36206 1.24903 -8.71895
LeftToes  -2.73175e-012 1.00346e-010 -4.28452e-011
487
root  4.11016 39.6035 -14.0825 -179.016 -64.9405 -171.795
RightUpLeg  -9.81696 -5.95794 0.550667
RightLeg  11.975 -13.9199 1.43383
RightFoot  -10.4136 -0.114397 5.3868
RightToes  -1.33073e-015 0 -3.6325e-017
Spine  12.2875 0.989165 3.78225
Spine1  -3.50847 1.72541 -4.47167
HEad  -15.9713 43.2148 -17.8274
LeftShoulder1  0.70006 1.44427 -27.8583
LeftArm  -58.7453 6.16479 0.806911
LeftForeArm  -19.5531 -50.3567 -14.9135
LeftHand  0.261743 3.80457 -21.7643
RightShoulder  5.6107 7.50311 44.5712
RightArm  0.551285 -0.911299 6.18742
RightForeArm  17.4161 30.5872 5.71165
RightHand  -0.822737 3.98813 -10.426
LeftUpLeg  -23.4506 12.8771 9.31551
LeftLeg  13.7961 -7.81277 -1.99344
LeftFoot  3.60726 1.34668 -10.4109
LeftToes  -2.73175e-012 1.00346e-010 -4.28452e-011
488
root  4.2476 39.5112 -13.9969 -178.944 -63.9036 -172.655
RightUpLeg  -10.5769 -6.37519 0.466971
RightLeg  14.3739 -12.4399 0.583487
RightFoot  -11.1996 -0.0828062 5.4426
RightToes  -1.33073e-015 0 -3.6325e-017
Spine  12.2269 1.21099 4.31408
Spine1  -3.26064 1.87535 -3.513
HEad  -11.6554 37.2386 -14.0381
LeftShoulder1  0.563335 1.86311 -28.2043
LeftArm  -59.4035 10.6881 -1.23696
LeftForeArm  -17.3324 -56.4831 -18.5916
LeftHand  0.127327 4.48143 -21.7465
RightShoulder  5.39192 6.88678 45.411
RightArm  -2.92536 -0.894035 5.35258
RightForeArm  22.787 33.2787 6.06958
RightHand  -0.949015 4.05749 -11.892
LeftUpLeg  -22.8417 9.10227 10.8438
LeftLeg  16.7893 -12.676 -3.95854
LeftFoot  0.017209 1.17412 -11.7767
LeftToes  -2.73175e-012 1.00346e-010 -4.28452e-011
489
root  4.27493 39.3995 -13.8696 -179.145 -62.5707 -173.539
RightUpLeg  -10.9974 -7.13162 0.430207
RightLeg  16.8322 -10.2462 -0.475861
RightFoot  -12.1109 -0.0439538 5.69645
RightToes  -1.33073e-015 0 -3.6325e-017
Spine  12.4413 1.31415 5.16808
Spine1  -3.49313 2.03861 -2.91715
HEad  -7.17097 30.6259 -10.6182
LeftShoulder1  0.404008 2.34647 -28.7821
LeftArm  -60.0043 16.0047 -3.42117
LeftForeArm  -16.0315 -63.16 -24.7386
LeftHand  -0.13626 5.801 -22.0758
RightShoulder  5.09124 6.14616 46.1996
RightArm  -7.10621 -1.09201 4.39313
RightForeArm  27.2563 36.7009 6.7056
RightHand  -1.07563 4.09557 -13.3787
LeftUpLeg  -21.6555 5.54853 11.7456
LeftLeg  20.1211 -13.1917 -4.98819
LeftFoot  -3.69842 0.853269 -12.4054
LeftToes  -2.73175e-012 1.00346e-010 -4.28452e-011
490
root  4.22629 39.2539 -13.711 -179.262 -60.8184 -174.487
RightUpLeg  -11.6525 -7.94749 0.435768
RightLeg  19.6114 -7.49475 -1.65972
RightFoot  -13.1061 0.0039493 6.02896
RightToes  -1.33073e-015 0 -3.6325e-017
Spine  12.488 1.39247 6.06678
Spine1  -3.74075 2.28905 -2.815
HEad  -3.40193 23.5076 -7.77465
LeftShoulder1  0.188536 2.97155 -29.2929
LeftArm  -59.8411 21.9679 -5.32402
LeftForeArm  -9.19269 -70.6217 -37.2401
LeftHand  -0.547374 7.9985 -20.7457
RightShoulder  4.77054 5.43501 46.7529
RightArm  -11.5837 -0.930102 3.27765
RightForeArm  30.8999 40.1761 7.47436
RightHand  -1.16335 3.90733 -14.7169
LeftUpLeg  -20.1603 4.85 11.3499
LeftLeg  23.3429 -11.925 -5.27242
LeftFoot  -6.4264 0.481903 -10.3124
LeftToes  -2.73175e-012 1.00346e-010 -4.28452e-011
491
root  4.15368 39.091 -13.5481 -179.029 -58.9429 -175.734
RightUpLeg  -12.4574 -6.79941 0.0865934
RightLeg  22.5048 -6.51644 -2.9974
RightFoot  -14.0707 0.0605087 6.54372
RightToes  -1.33073e-015 0 -3.6325e-017
Spine  12.3164 1.56304 6.33454
Spine1  -3.94849 2.52961 -2.6061
HEad  -0.646293 15.8232 -5.74452
LeftShoulder1  -0.0146679 3.54452 -29.9249
LeftArm  -59.2113 27.7415 -5.87034
LeftForeArm  12.4887 -76.4536 -62.366
LeftHand  -0.832368 10.2154 -17.6684
RightShoulder  4.48626 4.92457 46.6316
RightArm  -15.9713 -0.713366 2.00325
RightForeArm  33.7112 43.9009 8.47131
RightHand  -1.22092 3.63052 -15.8771
LeftUpLeg  -18.6308 6.50581 10.2425
LeftLeg  24.985 -9.96304 -4.71131
LeftFoot  -9.14141 0.227812 -9.00386
LeftToes  -2.73175e-012 1.00346e-010 -4.28452e-011
492
root  4.08433 38.9474 -13.4052 -178.619 -57.4919 -177.219
RightUpLeg  -12.9479 -4.28031 -0.885185
RightLeg  25.0524 -7.37505 -3.97682
RightFoot  -14.8666 0.113572 6.96315
RightToes  -1.33073e-015 0 -3.6325e-017
Spine  12.126 1.62032 6.29221
Spine1  -4.13263 2.663 -2.86586
HEad  1.56946 7.52105 -4.35359
LeftShoulder1  -0.182092 4.00732 -30.0294
LeftArm  -57.7945 33.2404 -5.77833
LeftForeArm  60.1336 -77.0146 -111.709
LeftHand  -0.880659 13.0869 -11.6641
RightShoulder  4.15237 4.35905 46.2622
RightArm  -20.2899 0.131879 0.401835
RightForeArm  35.352 46.929 9.43071
RightHand  -1.26032 3.26862 -17.0307
LeftUpLeg  -17.273 7.89595 9.09162
LeftLeg  25.001 -8.71932 -4.08995
LeftFoot  -10.5644 0.115917 -7.76489
LeftToes  -2.73175e-012 1.00346e-010 -4.28452e-011
493
root  4.0171 38.7847 -13.277 -178.367 -56.6181 -178.622
RightUpLeg  -13.2316 -2.6141 -1.9453
RightLeg  27.479 -7.75261 -4.59046
RightFoot  -15.8163 0.178439 7.30672
RightToes  -1.33073e-015 0 -3.6325e-017
Spine  11.864 1.6782 6.02746
Spine1  -4.18408 2.69819 -2.72397
HEad  2.93668 -1.13007 -3.15493
LeftShoulder1  -0.302142 4.35233 -29.4577
LeftArm  -56.4874 37.0101 -5.64136
LeftForeArm  88.1583 -70.3345 -142.595
LeftHand  -0.713037 16.1286 -6.47239
RightShoulder  3.89069 4.03447 45.1833
RightArm  -25.0451 0.49275 -1.25589
RightForeArm  37.4828 50.0988 10.5374
RightHand  -1.30458 3.07924 -17.9896
LeftUpLeg  -16.6037 7.56651 8.29733
LeftLeg  26.1403 -7.67087 -3.7518
LeftFoot  -11.6606 0.0465503 -8.31607
LeftToes  -2.73175e-012 1.00346e-010 -4.28452e-011
